<svg xmlns="http://www.w3.org/2000/svg" id="Capa_1" data-name="Capa 1" viewBox="0 0 1360 1150"><defs><style>.cls-1{fill:#bb2c7b;}.cls-2{fill:#dd851a;}.cls-3{fill:#1b6798;}.cls-4{fill:#e2c51b;}.cls-5{fill:#332670;}.cls-6{fill:#f4f4f4;opacity:0.7;}.cls-10,.cls-7{fill:#fff;}.cls-11,.cls-16,.cls-7{stroke:#332670;}.cls-11,.cls-16,.cls-17,.cls-7,.cls-9{stroke-linecap:round;stroke-linejoin:round;}.cls-11,.cls-17,.cls-7,.cls-9{stroke-width:2.3px;}.cls-8{fill:#22194b;}.cls-11,.cls-16,.cls-17,.cls-9{fill:none;}.cls-9{stroke:#22194b;}.cls-12{fill:#8e86b0;}.cls-13{fill:#776ea0;}.cls-14{fill:#605690;}.cls-15{fill:#a49fbf;}.cls-16{stroke-width:2.3px;}.cls-17{stroke:#2d2264;}</style></defs><rect class="cls-1" x="631.18" y="-43.76" width="131.96" height="440.68" rx="63.44" transform="matrix(0.53, -0.85, 0.85, 0.53, 179.95, 676.29)"></rect><rect class="cls-1" x="691.26" y="447.62" width="131.96" height="748.09" rx="65.98" transform="translate(-340.03 1032.79) rotate(-58.23)"></rect><rect class="cls-2" x="621.23" y="106.48" width="131.96" height="522.69" rx="64.42" transform="translate(12.66 758.37) rotate(-58.23)"></rect><rect class="cls-3" x="1071.46" y="232.08" width="131.96" height="434.39" rx="65.98" transform="translate(156.58 1179.7) rotate(-58.23)"></rect><rect class="cls-4" x="254.87" y="563.22" width="131.96" height="400.81" rx="65.98" transform="matrix(0.53, -0.85, 0.85, 0.53, -497.28, 634.31)"></rect><rect class="cls-3" x="631.09" y="795.5" width="131.96" height="402.27" rx="65.98" transform="translate(-517.26 1064.48) rotate(-58.23)"></rect><rect class="cls-3" x="142.93" y="266.11" width="131.96" height="402.27" rx="65.98" transform="matrix(0.53, -0.85, 0.85, 0.53, -298.32, 398.82)"></rect><rect class="cls-5" x="399.95" y="190.09" width="131.96" height="477.86" rx="65.98" transform="translate(-144.13 599.23) rotate(-58.23)"></rect><rect class="cls-2" x="942.02" y="446.42" width="131.96" height="636.66" rx="65.98" transform="translate(-172.91 1219.02) rotate(-58.23)"></rect><rect class="cls-4" x="1088.04" y="463.82" width="131.96" height="386.26" rx="65.29" transform="translate(-12.13 1292.12) rotate(-58.23)"></rect><path class="cls-6" d="M717.51,1006.67C687.62,988.72,658.17,970.1,624,966c-50.44-6.13-98.43,20.85-148.38,30.16-45.4,8.46-94.33,1.52-133.27-23.3s-66.54-68.32-68-114.47c-.72-22.89,4.7-45.64,4.07-68.53A131.13,131.13,0,0,0,245,706.32c-29.38-32.52-73.69-48.69-102.58-81.66-44.71-51-36.94-139,16-181.46C192.79,415.68,238.84,408,277,386a180.09,180.09,0,0,0,83.08-108.22c5.66-21.18,7.4-43.36,14.36-64.15,13.66-40.75,47.6-73.49,87.88-88.47s86.1-12.77,126,3.24c45.46,18.26,84,53.54,131.93,63.53,59,12.28,118-16.11,177.64-24.85,50.86-7.46,104.85.18,148.65,27.09s76,74.28,78.83,125.6c1.18,21.11-2.41,42.3-.9,63.4a132.89,132.89,0,0,0,40.7,86c47.86,45.35,89.44,86.73,80.35,163.47-9.87,83.39-53.93,151.73-130.93,177.42-30.78,10.27-70.46,14.1-94.75,37.81-25.78,25.16-23.09,63-32,95.19-12.37,44.48-49.43,80.21-93.1,95.18s-92.87,10.24-135-8.66C745.19,1023.08,731.3,1015,717.51,1006.67Z"></path><path class="cls-7" d="M639.19,415.52,619,448.86a31.64,31.64,0,0,1-43.44,10.69l-8.5-5.15-21.93,7.66a4.46,4.46,0,0,1-5.9-3.7L536.7,436l-9.51-5.76a31.63,31.63,0,0,1-10.69-43.44l20.17-33.34a31.63,31.63,0,0,1,43.44-10.68l48.4,29.28A31.63,31.63,0,0,1,639.19,415.52Z"></path><path class="cls-8" d="M848,269.3h0a9.14,9.14,0,0,1,1,13.21l-81.89,90.28-14.14-11.61,82.49-90.95A9.14,9.14,0,0,1,848,269.3Z"></path><path class="cls-5" d="M732.45,393.3l11.21-28.25.57-1.1c12.28-17.88,35.63-1.21,20.66,17.39h0l-27.5,16.2A3.44,3.44,0,0,1,732.45,393.3Z"></path><line class="cls-9" x1="755.24" y1="373.36" x2="735.35" y2="395.41"></line><line class="cls-9" x1="752.98" y1="365.33" x2="742.87" y2="381.24"></line><path class="cls-5" d="M1086.46,355.2a31.69,31.69,0,0,1-1.29,3.45,18.58,18.58,0,0,0-27.74,9.79l-1.26-.47c-1.76-4.07,3.92-15,7.95-21.92a6.24,6.24,0,0,0-2.89-8.86l-33.8-14.75a14.45,14.45,0,0,1,1.49-26.5,14.14,14.14,0,0,1,9.35.12,15.27,15.27,0,0,1,8.35,7,14.76,14.76,0,0,1,1.74,7.48,19.76,19.76,0,0,1,6.26-.67,20,20,0,0,1,5.71,1.17,10,10,0,0,1,4.36,4.73,10.42,10.42,0,0,1-.5,8.72c1.3,0,14.85.24,20.81,10.22a19.13,19.13,0,0,1,2.5,7.52A30.9,30.9,0,0,1,1086.46,355.2Z"></path><path class="cls-7" d="M1093.55,376.12a18.57,18.57,0,0,1-28.22,13.93L1046,432.76l-1.32,2.89a22.66,22.66,0,0,1-15.13,12.62,22.93,22.93,0,0,1-5.49.68,22.57,22.57,0,0,1-7.14-1.17,21.89,21.89,0,0,1-4.67-2.16,22.64,22.64,0,0,1-8.49-29.35l1.47-3,5.53-11.18c-18.2-14-10.72-35.65-10.72-35.65,1.25-6.73,27.42-44,27.42-44l33.8,14.75a6.24,6.24,0,0,1,2.89,8.86c-4,6.91-9.71,17.85-7.95,21.92l1.26.47a18.57,18.57,0,0,1,36.12,7.68Z"></path><path class="cls-5" d="M631.61,738H585.08L568.37,605.31a26,26,0,0,0-25.76-22.72h-175a26,26,0,0,0-25.66,29.95l20.9,134.72H636.16Z"></path><path class="cls-10" d="M467.5,678.29a14.8,14.8,0,0,1-29.59,0c0-8.17,14.79-25.22,14.79-25.22C453.3,653.67,467.5,670.12,467.5,678.29Z"></path><polyline class="cls-11" points="235.32 916.81 287.94 747.26 415.74 747.26 678.01 747.26 691.37 916.81"></polyline><line class="cls-11" x1="433.28" y1="916.81" x2="415.74" y2="747.26"></line><line class="cls-11" x1="531.84" y1="916.81" x2="580.28" y2="747.26"></line><path class="cls-5" d="M1192.23,575.36A30.67,30.67,0,0,1,1162.06,606l-106.88,2.41,2.25-17.28-.12-.62c28-5.35,48.13-20.66,48.13-38.72,0-22.5-31.35-40.75-70-40.75-20.82,0-39.53,5.29-52.35,13.68l-44.86-16.34,4.46-34.73H861.44a42.69,42.69,0,0,1-39.64-26.86l-30.72-77a11.37,11.37,0,0,1,5.83-14.07l39.49-18.81a11.4,11.4,0,0,1,15.29,5.67l26.7,61.59L994,409.07a18.83,18.83,0,0,1,11.17,4.23l-1.47,3a22.64,22.64,0,0,0,8.49,29.35,21.89,21.89,0,0,0,4.67,2.16A22.57,22.57,0,0,0,1024,449a22.93,22.93,0,0,0,5.49-.68,22.66,22.66,0,0,0,15.13-12.62l1.32-2.89a14.25,14.25,0,0,1,14.67,3.16l122,117.17A30.6,30.6,0,0,1,1192.23,575.36Z"></path><path class="cls-5" d="M1118.15,840.29l19.44,76.52H1101.7l-6.48-29.91-34.4,29.91H967.61c-.28-2.24-1.42-13.57,6.48-23.43,10.28-12.85,26.64-11.59,27.91-11.46l12.71-15.21,3.91-1Z"></path><path class="cls-10" d="M1101.67,779.62l16.48,60.67-99.53,25.43-3.91,1-19.23-65.55h0L949.83,645.63l-52.51,55.83,8.28,33.89L919.21,791l11.51,47L870,845.36l-49,5.9-5.18-18.06L776.94,697.31a64.87,64.87,0,0,1,21.2-68L933.21,518.51l5-10.13,44.86,16.34c-11,7.21-17.69,16.68-17.69,27.07,0,22.5,31.37,40.75,70,40.75a117.46,117.46,0,0,0,21.91-2l.12.62-2.25,17.28,30.27,111.44Z"></path><ellipse class="cls-12" cx="1078.34" cy="547.51" rx="15.22" ry="10.39"></ellipse><path class="cls-13" d="M1035.4,511c38.69,0,70,18.25,70,40.75,0,18.06-20.17,33.37-48.13,38.72a117.46,117.46,0,0,1-21.91,2c-38.67,0-70-18.25-70-40.75,0-10.39,6.68-19.86,17.69-27.07C995.87,516.33,1014.58,511,1035.4,511Zm58.16,36.47c0-5.73-6.81-10.38-15.22-10.38s-15.22,4.65-15.22,10.38,6.82,10.39,15.22,10.39S1093.56,553.24,1093.56,547.51Zm-27,23.54c0-5.75-6.82-10.38-15.22-10.38s-15.22,4.63-15.22,10.38,6.81,10.39,15.22,10.39S1066.56,576.78,1066.56,571.05Zm-8.38-44.31c0-5.73-6.81-10.39-15.22-10.39s-15.22,4.66-15.22,10.39,6.82,10.39,15.22,10.39S1058.18,532.47,1058.18,526.74ZM987.8,550.17c10.84,4,36.3,3.06,33.15-13-3-15.25-30.91-12.41-30.91-12.41l-9.47,18.1S980.43,547.46,987.8,550.17Zm28.88,18.11c0-5.73-6.81-10.38-15.22-10.38s-15.22,4.65-15.22,10.38,6.82,10.39,15.22,10.39S1016.68,574,1016.68,568.28Z"></path><ellipse class="cls-14" cx="1051.34" cy="571.05" rx="15.22" ry="10.39"></ellipse><ellipse class="cls-15" cx="1042.96" cy="526.74" rx="15.22" ry="10.39"></ellipse><path class="cls-10" d="M1021,537.13c3.15,16.1-22.31,17-33.15,13-7.37-2.71-7.23-7.35-7.23-7.35l9.47-18.1S1018,521.88,1021,537.13Z"></path><ellipse class="cls-5" cx="1001.46" cy="568.28" rx="15.22" ry="10.39"></ellipse><path class="cls-5" d="M930.72,838.05l16.7,63.81-34.15,9.72-7-27.54-39.38,32.77H774.44V905.35a38.1,38.1,0,0,1,6.19-11.67c13.24-16.87,38.47-19.4,42.16-19.24l-1.74-23.18,49-5.9Z"></path><path class="cls-16" d="M938.19,508.38l-5,10.13L798.14,629.33a64.87,64.87,0,0,0-21.2,68L815.87,833.2l5.18,18.06,49-5.9,60.72-7.31-11.51-47L905.6,735.35l-8.28-33.89,52.51-55.83,45.65,155.52h0l19.23,65.55,3.91-1,99.53-25.43-16.48-60.67-16.22-59.77-30.27-111.44,2.25-17.28"></path><path class="cls-11" d="M1055.23,608l-38.54-1.21c-5.31.06-28-.26-46.26-17.61a64.49,64.49,0,0,1-17.28-28.48,7.37,7.37,0,0,1,13.71-5.42"></path><path class="cls-7" d="M1014.09,367.1l19.32,6.85c-.19.54-2.17,5.93-7.73,7.48a11.41,11.41,0,0,1-7.6-.63,8.71,8.71,0,0,1-4-13.7Z"></path><polyline class="cls-11" points="1083.76 370.09 1065.93 370.09 1075.78 379.93"></polyline><path class="cls-11" d="M1006.49,329.92l55.33,24.59c-.16.61-2.26,8-9.63,10.47a15.43,15.43,0,0,1-12.14-1.17,14.63,14.63,0,0,1-5.48-6c-3.15-6.48,0-12.92.46-13.75l-3-1.37c-.25.76-2.8,8.12-10.39,10.47a16.07,16.07,0,0,1-11.3-.83,13.91,13.91,0,0,1-6.65-7.15,14.18,14.18,0,0,1,.67-11.46Z"></path><circle class="cls-5" cx="1019.33" cy="344.41" r="4.11"></circle><circle class="cls-5" cx="1043.63" cy="353.14" r="4.11"></circle><polyline class="cls-11" points="1030.42 361.4 1021.45 357.25 1028.62 348.53"></polyline><path class="cls-11" d="M1010.73,402.12s8.35,12,34,7.1"></path><path class="cls-7" d="M841.85,343.27c.55.68,7.77,9.89,3.86,22-3.84,11.88-15.25,15.39-16.19,15.66-1.1.44-11.72,4.49-21.76-1.83a24.52,24.52,0,0,1-10.64-15.62l-29.78-23.05a16.77,16.77,0,0,1,10.34-25.8,9.69,9.69,0,0,1,1-6.15,10.36,10.36,0,0,1,9.22-5.07A16.13,16.13,0,0,1,794,292.86c6.25-4.72,13.5-2.64,14.25-2.41l13.21,11.34,1,2.37a7.94,7.94,0,0,1,4.69-.78c4.43.68,6.32,5.14,6.44,5.43a157.71,157.71,0,0,1,5.32,15.29c1.51,5.2,2.64,10.11,3.49,14.62Z"></path><path class="cls-5" d="M946.3,600.48C946.3,615.14,934,627,918.71,627s-27.58-11.88-27.58-26.54,27.58-45.24,27.58-45.24C919.83,556.32,946.3,585.82,946.3,600.48Z"></path><path class="cls-5" d="M865.75,681.26c0,14.66-12.35,26.54-27.58,26.54s-27.58-11.88-27.58-26.54S838.17,636,838.17,636C839.29,637.1,865.75,666.61,865.75,681.26Z"></path><path class="cls-5" d="M1030.32,681.26c0,14.66-12.35,26.54-27.59,26.54s-27.58-11.88-27.58-26.54S1002.73,636,1002.73,636C1003.86,637.1,1030.32,666.61,1030.32,681.26Z"></path><path class="cls-5" d="M1101.67,779.62a27.85,27.85,0,0,1-24.28,7.22c-15-2.68-25.07-16.54-22.5-31,2-11,21.51-28.47,30.56-36Z"></path><path class="cls-5" d="M919.21,791a28.06,28.06,0,0,1-8.85-.18c-15-2.68-25.07-16.54-22.5-31,1.25-7,9.54-16.54,17.74-24.51Z"></path><path class="cls-5" d="M1018.62,865.72l-3.91,1-19.23-65.55h0c3.31-4.79,5.71-7.91,5.71-7.91,1.27,1,31.68,29.91,32.92,45.37A28.07,28.07,0,0,1,1018.62,865.72Z"></path><path class="cls-11" d="M822.38,304.16s-5.8,10.72-.5,17.45,5.53,13.67,2.69,16.06c-1.93,1.64-5.15,1-6.84.56A9.84,9.84,0,0,1,804.6,351a8,8,0,0,1,.16,9.47,7.88,7.88,0,0,1-7.64,3"></path><line class="cls-11" x1="783.16" y1="333.88" x2="804.6" y2="351.02"></line><line class="cls-11" x1="793.88" y1="320.28" x2="817.73" y2="338.23"></line><line class="cls-11" x1="805.8" y1="305.49" x2="821.88" y2="321.61"></line><path class="cls-5" d="M817,834.71a27.87,27.87,0,0,0,24.5-6.48c11.4-10.1,12.77-27.18,3.07-38.16-7.43-8.41-33.2-13.09-44.85-14.83Z"></path><line class="cls-17" x1="943.14" y1="471.32" x2="945" y2="462.52"></line><line class="cls-17" x1="1053.33" y1="510.19" x2="1056.51" y2="502.37"></line><path class="cls-13" d="M966.14,545.69a24.69,24.69,0,0,0,1.29,15.95c3.67,8.39,3.5-4.41,3.5-4.41Z"></path><line class="cls-11" x1="167.76" y1="916.81" x2="1192.24" y2="916.81"></line><path class="cls-7" d="M1005.82,526.74s-39.88-6.73-42.37,4.4c-1.49,7.48,6.82,12.47,31.24,14.79l15.12,1.58"></path><path class="cls-10" d="M458.93,537.65l18.76-23.87,14,6.32-21,27.84Z"></path><path class="cls-5" d="M478,515.2l11.87,5.36-19.41,25.7-10-8.76q8.76-11.14,17.53-22.3m-.7-2.83-20,25.42,13.49,11.83,22.65-30-16.15-7.28Z"></path><path class="cls-10" d="M470.18,509.69A81.32,81.32,0,0,0,433.07,500h-1.25a80.27,80.27,0,0,0-28.25,5.12l35.17-69.52a90.74,90.74,0,0,0,43.74,51.12Z"></path><path class="cls-5" d="M438.56,438.47a92,92,0,0,0,42.36,48.69l-11.21,21a82.3,82.3,0,0,0-36.62-9.32h-1.27A81.46,81.46,0,0,0,405.9,503l32.66-64.56m.41-5.92-37.79,74.71a79.84,79.84,0,0,1,30.64-6.15h1.23a80.13,80.13,0,0,1,37.6,10.14L484,486.2A89.67,89.67,0,0,1,439,432.55Z"></path><path class="cls-5" d="M395.17,504.09l6,3.17L439,432.55l-5.86-2.79Z"></path><path class="cls-5" d="M470.65,511.26l15.76,8.09,6.27,3.44a9.94,9.94,0,0,0,13.17-3.34l4.5-7a10,10,0,0,0-3.68-14.16L484.1,486.23l-.06,0Z"></path><line class="cls-11" x1="419.84" y1="442.41" x2="409.97" y2="426.75"></line><line class="cls-11" x1="407.9" y1="464.4" x2="382.51" y2="452.69"></line><line class="cls-11" x1="397.26" y1="487.4" x2="379.45" y2="489.68"></line><path class="cls-5" d="M460.2,365.49a35.76,35.76,0,0,1-23.13,11.57,36.37,36.37,0,0,1-30.49-10.69c-7.35-7.25-10.85-16-11-27.64.63-14,7.43-24.89,19.66-31.61,10.67-5.87,22-6.2,33.69-1A32.11,32.11,0,0,1,454,309q-2,1.92-3.91,3.91A30.76,30.76,0,0,0,431.55,308c-11.58.67-20.39,6-26.19,15.88a30.24,30.24,0,0,0-1.71,28.65c5.28,11.88,15,18.54,28,19.29a31.94,31.94,0,0,0,28.27-49.12c1.2-1.17,2.45-2.43,3.92-3.91a37.43,37.43,0,0,1-3.61,46.68Z"></path><path class="cls-5" d="M454.92,338.94a23.23,23.23,0,0,1-6.87,16.83,21.42,21.42,0,0,1-15.55,6.12A22,22,0,0,1,431,318.06c.67-.05,1.33-.08,2-.08a21.87,21.87,0,0,1,9.8,2.3c-1.38,1.35-2.74,2.72-4.11,4.1a16.57,16.57,0,1,0,9.82,9.76q2.08-2,4.11-4.1A20.92,20.92,0,0,1,454.92,338.94Z"></path><path class="cls-5" d="M473.8,289.32c.15,1.06.3,2,.43,3,.24,1.66.49,3.32.69,5,.05.46.23.6.66.66,2.55.33,5.09.69,7.64,1l.33.06c.05.24-.14.32-.25.42l-11.87,11.73a.84.84,0,0,1-.83.21c-1.73-.24-3.47-.46-5.2-.72a.87.87,0,0,0-.85.29q-12.29,12.3-24.58,24.57a.67.67,0,0,0-.14.92,7.4,7.4,0,0,1-.84,8.22,7.68,7.68,0,1,1-11-10.65,7.36,7.36,0,0,1,8.24-1.06.78.78,0,0,0,1.06-.2q12.18-12.21,24.37-24.38a1.05,1.05,0,0,0,.33-1c-.26-1.75-.49-3.51-.75-5.26a.82.82,0,0,1,.27-.8l11.76-11.6C473.43,289.61,473.58,289.5,473.8,289.32Z"></path><path class="cls-10" d="M591.07,570.59c-.66-1.68-1.35-3.42-3-3.42-.93,0-1.77.56-3.2,1.75a8.37,8.37,0,0,1-10.07.7,10.1,10.1,0,0,1-3.92-10.71c.77-2.81,4.63-5.47,8.09-5.57,1.69,0,3-.16,3.69-1.17s.25-2.31-.38-3.9l-4.34-11a9.85,9.85,0,0,1-.67-2.05,18.93,18.93,0,0,1,2-.87l3.33-1.31,7.11-2.79c1.32-.53,2.59-1.18,2.91-2.42s-.35-2.32-1.44-3.67c-2.65-3.28-3.15-6.57-1.53-10.07a9,9,0,0,1,8-4.87c.2,0,.41,0,.61,0a8.69,8.69,0,0,1,7.67,6.18,13.76,13.76,0,0,1,.42,3.22v.17c.16,3,1.84,3.49,2.83,3.49a5.2,5.2,0,0,0,1.86-.4c2.18-.84,4.35-1.69,6.53-2.55q2.36-.95,4.73-1.86a6.7,6.7,0,0,1,1.79-.53c.12,0,.33,0,1,1.71l1.16,3.06c1.05,2.78,2.13,5.64,3.25,8.45.52,1.32,1.18,3,2.7,3,1,0,1.86-.71,2.93-1.64a9.21,9.21,0,0,1,6-2.34,7.67,7.67,0,0,1,5.51,2.3c3.59,3.64,4,9,.86,12.54a8.18,8.18,0,0,1-6.31,2.9c-1.42,0-2.86.14-3.57,1.19s-.26,2.46.26,3.81q1.76,4.51,3.53,9l1,2.59-12.71,5c-.75-7.27-4.44-11.49-11-12.55a13.84,13.84,0,0,0-2.11-.17,11.22,11.22,0,0,0-9.67,5.43c-3.35,5.23-3,10.51,1.16,15.7l-12.66,5Z"></path><path class="cls-5" d="M597.71,510.33l.52,0a7.56,7.56,0,0,1,6.66,5.38,12.29,12.29,0,0,1,.37,2.94v.17c.23,4.25,3.11,4.58,4,4.58a6.39,6.39,0,0,0,2.27-.48c2.2-.84,4.42-1.72,6.57-2.57l4.7-1.84c.42-.17.71-.27.92-.34.09.2.21.47.35.86l1.17,3.07c1,2.77,2.13,5.64,3.25,8.45.59,1.47,1.47,3.7,3.77,3.7,1.36,0,2.43-.83,3.68-1.91a8.05,8.05,0,0,1,5.25-2.07,6.51,6.51,0,0,1,4.68,2c3.16,3.21,3.51,7.92.82,11a7.09,7.09,0,0,1-5.47,2.52c-1.65,0-3.49.19-4.51,1.7s-.46,3.31.15,4.87q1.73,4.46,3.49,8.9l.64,1.62-10.28,4c-1.43-8.55-7-11.31-11.74-12.07a13.78,13.78,0,0,0-2.29-.19,12.34,12.34,0,0,0-10.64,6c-2.39,3.74-4.07,9.35.32,15.8l-6.85,2.69-3.35,1.32-.62-1.57q-1.68-4.29-3.39-8.63c-.73-1.85-1.64-4.15-4-4.15-1.4,0-2.56.87-3.93,2a7.43,7.43,0,0,1-4.78,1.79,7.34,7.34,0,0,1-3.94-1.18,8.88,8.88,0,0,1-3.43-9.44c.63-2.3,4.1-4.63,7-4.72,1.59,0,3.57-.1,4.62-1.69s.32-3.45-.26-4.95q-1.1-2.77-2.18-5.55T579,536.81c-.12-.32-.26-.68-.37-1,.32-.14.72-.29,1.09-.44l3.3-1.29,7.14-2.81c1.53-.61,3.15-1.46,3.61-3.19s-.53-3.29-1.67-4.7c-2.34-2.9-2.8-5.79-1.38-8.85a7.78,7.78,0,0,1,7-4.21m0-2.3a10.1,10.1,0,0,0-9.05,5.54c-1.88,4.07-1.07,7.87,1.68,11.27,1.9,2.35,1.75,3.21-1,4.3-3.47,1.38-7,2.73-10.43,4.1-3.23,1.27-3.24,1.28-2,4.41q2.18,5.52,4.34,11c1.18,3,.9,3.41-2.27,3.5-4,.12-8.27,3.13-9.17,6.42a11.22,11.22,0,0,0,4.41,12,9.61,9.61,0,0,0,5.18,1.54,9.75,9.75,0,0,0,6.25-2.32c1.16-1,1.89-1.49,2.46-1.49.73,0,1.18.85,1.91,2.69,1.63,4.14,3.26,8.28,4.85,12.34l15.23-6c-4.41-4.84-5.65-10-2.11-15.56a10.05,10.05,0,0,1,8.7-4.9,11.48,11.48,0,0,1,1.92.16c7.09,1.14,9.84,6.14,10.14,13.05l15.23-6c-1.66-4.22-3.33-8.43-5-12.65-1.08-2.8-.69-3.39,2.26-3.44a9.38,9.38,0,0,0,7.15-3.29c3.51-4,3.11-10-.9-14.11a8.78,8.78,0,0,0-6.33-2.64,10.39,10.39,0,0,0-6.75,2.63c-1,.87-1.66,1.35-2.17,1.35s-1-.71-1.63-2.25c-1.52-3.81-3-7.66-4.41-11.49-.66-1.74-1.09-2.45-2.05-2.45a6.82,6.82,0,0,0-2.2.6c-3.76,1.46-7.5,3-11.26,4.41a4.15,4.15,0,0,1-1.45.33c-1.08,0-1.6-.8-1.68-2.4a15.45,15.45,0,0,0-.48-3.67,9.82,9.82,0,0,0-8.69-7l-.69,0Z"></path><path class="cls-5" d="M605.71,398h0a15.43,15.43,0,0,0-19-8.78l-5.42,1.8-4.45-7.26a15.33,15.33,0,0,0-19.07-6.27l-.39.17A15.43,15.43,0,0,0,550,398.8L562,428l35.39-9.5A15.4,15.4,0,0,0,605.71,398Z"></path></svg>